<svg id="Layer_1" data-name="Layer 1" xmlns="http://www.w3.org/2000/svg" xmlns:xlink="http://www.w3.org/1999/xlink" viewBox="0 0 40.33 33.69"><defs><style>.cls-1,.cls-4{fill:none;}.cls-2{opacity:0.02;}.cls-3{clip-path:url(#clip-path);}.cls-4{stroke:#fff;stroke-miterlimit:10;stroke-width:6px;}.cls-5{clip-path:url(#clip-path-2);}.cls-6{fill:#fff;}</style><clipPath id="clip-path"><rect class="cls-1" x="150.44" y="-549.31" width="645.78" height="326.46"/></clipPath><clipPath id="clip-path-2"><rect class="cls-1" x="150.44" y="2.16" width="645.78" height="326.46"/></clipPath></defs><g class="cls-2"><g class="cls-3"><line class="cls-4" x1="-260.2" y1="291.19" x2="270.79" y2="-892.75"/><line class="cls-4" x1="-243.54" y1="289.39" x2="287.44" y2="-894.54"/><line class="cls-4" x1="-226.89" y1="287.6" x2="304.1" y2="-896.34"/><line class="cls-4" x1="-210.23" y1="285.81" x2="320.75" y2="-898.13"/><line class="cls-4" x1="-193.58" y1="284.01" x2="337.41" y2="-899.93"/><line class="cls-4" x1="-176.92" y1="282.22" x2="354.06" y2="-901.72"/><line class="cls-4" x1="-160.27" y1="280.42" x2="370.72" y2="-903.51"/><line class="cls-4" x1="-143.61" y1="278.63" x2="387.37" y2="-905.31"/><line class="cls-4" x1="-126.96" y1="276.84" x2="404.03" y2="-907.1"/><line class="cls-4" x1="-110.3" y1="275.04" x2="420.69" y2="-908.9"/><line class="cls-4" x1="-93.64" y1="273.25" x2="437.34" y2="-910.69"/><line class="cls-4" x1="-76.99" y1="271.45" x2="454" y2="-912.48"/><line class="cls-4" x1="-60.33" y1="269.66" x2="470.65" y2="-914.28"/><line class="cls-4" x1="-43.68" y1="267.87" x2="487.31" y2="-916.07"/><line class="cls-4" x1="-27.02" y1="266.07" x2="503.96" y2="-917.86"/><line class="cls-4" x1="-10.37" y1="264.28" x2="520.62" y2="-919.66"/><line class="cls-4" x1="6.29" y1="262.48" x2="537.27" y2="-921.45"/><line class="cls-4" x1="22.94" y1="260.69" x2="553.93" y2="-923.25"/><line class="cls-4" x1="39.6" y1="258.9" x2="570.58" y2="-925.04"/></g></g><g class="cls-2"><g class="cls-5"><line class="cls-4" x1="-260.2" y1="842.65" x2="270.79" y2="-341.29"/><line class="cls-4" x1="-243.54" y1="840.86" x2="287.44" y2="-343.08"/><line class="cls-4" x1="-226.89" y1="839.06" x2="304.1" y2="-344.87"/><line class="cls-4" x1="-210.23" y1="837.27" x2="320.75" y2="-346.67"/><line class="cls-4" x1="-193.58" y1="835.47" x2="337.41" y2="-348.46"/><line class="cls-4" x1="-176.92" y1="833.68" x2="354.06" y2="-350.26"/><line class="cls-4" x1="-160.27" y1="831.89" x2="370.72" y2="-352.05"/><line class="cls-4" x1="-143.61" y1="830.09" x2="387.37" y2="-353.84"/><line class="cls-4" x1="-126.96" y1="828.3" x2="404.03" y2="-355.64"/><line class="cls-4" x1="-110.3" y1="826.5" x2="420.69" y2="-357.43"/><line class="cls-4" x1="-93.64" y1="824.71" x2="437.34" y2="-359.23"/><line class="cls-4" x1="-76.99" y1="822.92" x2="454" y2="-361.02"/><line class="cls-4" x1="-60.33" y1="821.12" x2="470.65" y2="-362.81"/><line class="cls-4" x1="-43.68" y1="819.33" x2="487.31" y2="-364.61"/><line class="cls-4" x1="-27.02" y1="817.53" x2="503.96" y2="-366.4"/><line class="cls-4" x1="-10.37" y1="815.74" x2="520.62" y2="-368.2"/><line class="cls-4" x1="6.29" y1="813.95" x2="537.27" y2="-369.99"/><line class="cls-4" x1="22.94" y1="812.15" x2="553.93" y2="-371.78"/><line class="cls-4" x1="39.6" y1="810.36" x2="570.58" y2="-373.58"/></g></g><circle class="cls-6" cx="20.16" cy="16.85" r="14.11"/><path d="M17.39,23.86,11,17.5a1,1,0,0,1,0-1.39l1.39-1.38a1,1,0,0,1,1.38,0L18.08,19l9.18-9.18a1,1,0,0,1,1.39,0L30,11.22a1,1,0,0,1,0,1.38L18.78,23.86a1,1,0,0,1-1.39,0Z"/></svg>