<svg id="Layer_1" data-name="Layer 1" xmlns="http://www.w3.org/2000/svg" xmlns:xlink="http://www.w3.org/1999/xlink" viewBox="0 0 40.33 33.69"><defs><style>.cls-1,.cls-4{fill:none;}.cls-2{opacity:0.02;}.cls-3{clip-path:url(#clip-path);}.cls-4{stroke:#fff;stroke-miterlimit:10;stroke-width:6px;}.cls-5{fill:gray;}.cls-6{clip-path:url(#clip-path-2);}</style><clipPath id="clip-path"><rect class="cls-1" x="150.44" y="-549.31" width="645.78" height="326.46"/></clipPath><clipPath id="clip-path-2"><rect class="cls-1" x="150.44" y="-44.46" width="645.78" height="326.46"/></clipPath></defs><g class="cls-2"><g class="cls-3"><line class="cls-4" x1="-260.2" y1="291.19" x2="270.79" y2="-892.75"/><line class="cls-4" x1="-243.54" y1="289.39" x2="287.44" y2="-894.54"/><line class="cls-4" x1="-226.89" y1="287.6" x2="304.1" y2="-896.34"/><line class="cls-4" x1="-210.23" y1="285.81" x2="320.75" y2="-898.13"/><line class="cls-4" x1="-193.58" y1="284.01" x2="337.41" y2="-899.93"/><line class="cls-4" x1="-176.92" y1="282.22" x2="354.06" y2="-901.72"/><line class="cls-4" x1="-160.27" y1="280.42" x2="370.72" y2="-903.51"/><line class="cls-4" x1="-143.61" y1="278.63" x2="387.37" y2="-905.31"/><line class="cls-4" x1="-126.96" y1="276.84" x2="404.03" y2="-907.1"/><line class="cls-4" x1="-110.3" y1="275.04" x2="420.69" y2="-908.9"/><line class="cls-4" x1="-93.64" y1="273.25" x2="437.34" y2="-910.69"/><line class="cls-4" x1="-76.99" y1="271.45" x2="454" y2="-912.48"/><line class="cls-4" x1="-60.33" y1="269.66" x2="470.65" y2="-914.28"/><line class="cls-4" x1="-43.68" y1="267.87" x2="487.31" y2="-916.07"/><line class="cls-4" x1="-27.02" y1="266.07" x2="503.96" y2="-917.86"/><line class="cls-4" x1="-10.37" y1="264.28" x2="520.62" y2="-919.66"/><line class="cls-4" x1="6.29" y1="262.48" x2="537.27" y2="-921.45"/><line class="cls-4" x1="22.94" y1="260.69" x2="553.93" y2="-923.25"/><line class="cls-4" x1="39.6" y1="258.9" x2="570.58" y2="-925.04"/></g></g><path class="cls-5" d="M39.07,11.78,21.76.45a3.05,3.05,0,0,0-3.19,0L1.26,11.78a2.78,2.78,0,1,0,3,4.65L20.16,6.05,36,16.43a2.78,2.78,0,0,0,3-4.65Z"/><path class="cls-5" d="M4.78,19.73v8a2.75,2.75,0,0,0,2.76,2.75h1v.45a2.77,2.77,0,0,0,2.78,2.78h0a2.78,2.78,0,0,0,2.78-2.78v-.45H26.28v.45a2.78,2.78,0,0,0,5.56,0v-.45h.95a2.76,2.76,0,0,0,2.76-2.75v-8L20.16,9.67Z"/><g class="cls-2"><g class="cls-6"><line class="cls-4" x1="-260.2" y1="796.03" x2="270.79" y2="-387.9"/><line class="cls-4" x1="-243.54" y1="794.24" x2="287.44" y2="-389.7"/><line class="cls-4" x1="-226.89" y1="792.45" x2="304.1" y2="-391.49"/><line class="cls-4" x1="-210.23" y1="790.65" x2="320.75" y2="-393.28"/><line class="cls-4" x1="-193.58" y1="788.86" x2="337.41" y2="-395.08"/><line class="cls-4" x1="-176.92" y1="787.06" x2="354.06" y2="-396.87"/><line class="cls-4" x1="-160.27" y1="785.27" x2="370.72" y2="-398.67"/><line class="cls-4" x1="-143.61" y1="783.48" x2="387.37" y2="-400.46"/><line class="cls-4" x1="-126.96" y1="781.68" x2="404.03" y2="-402.25"/><line class="cls-4" x1="-110.3" y1="779.89" x2="420.69" y2="-404.05"/><line class="cls-4" x1="-93.64" y1="778.1" x2="437.34" y2="-405.84"/><line class="cls-4" x1="-76.99" y1="776.3" x2="454" y2="-407.64"/><line class="cls-4" x1="-60.33" y1="774.51" x2="470.65" y2="-409.43"/><line class="cls-4" x1="-43.68" y1="772.71" x2="487.31" y2="-411.22"/><line class="cls-4" x1="-27.02" y1="770.92" x2="503.96" y2="-413.02"/><line class="cls-4" x1="-10.37" y1="769.13" x2="520.62" y2="-414.81"/><line class="cls-4" x1="6.29" y1="767.33" x2="537.27" y2="-416.61"/><line class="cls-4" x1="22.94" y1="765.54" x2="553.93" y2="-418.4"/><line class="cls-4" x1="39.6" y1="763.74" x2="570.58" y2="-420.19"/></g></g></svg>